<svg width="16" height="16" viewBox="0 0 16 16" fill="none" xmlns="http://www.w3.org/2000/svg">
<path d="M15.3682 0.969761C15.2125 0.976208 15.0647 1.06664 14.9561 1.2219L5.78933 13.959L2.01725 8.71773C1.96202 8.6378 1.89586 8.57398 1.82266 8.53002C1.74945 8.48606 1.67067 8.46283 1.59092 8.4617C1.51118 8.46058 1.43207 8.48157 1.35824 8.52345C1.2844 8.56534 1.21732 8.62727 1.16093 8.70563C1.10454 8.78398 1.05997 8.87718 1.02982 8.97977C0.99968 9.08236 0.984571 9.19228 0.985383 9.30309C0.986194 9.41389 1.00291 9.52336 1.03455 9.62508C1.06619 9.72679 1.11212 9.81872 1.16965 9.89546L5.36553 15.7256C5.47794 15.8817 5.63038 15.9694 5.78933 15.9694C5.94828 15.9694 6.10072 15.8817 6.21313 15.7256L15.8037 2.39963C15.8903 2.28264 15.9495 2.13203 15.9734 1.96752C15.9974 1.80301 15.985 1.63228 15.9379 1.47772C15.8909 1.32315 15.8113 1.19194 15.7096 1.1013C15.608 1.01066 15.489 0.964813 15.3682 0.969761Z" fill="#E2E0C8"/>
</svg>
