<svg width="30" height="30" viewBox="0 0 30 30" fill="none" xmlns="http://www.w3.org/2000/svg">
<path d="M15 -0.000180167C14.8344 -0.00252272 14.6699 0.0280788 14.5162 0.0898457C14.3625 0.151613 14.2226 0.243313 14.1046 0.359618C13.9867 0.475923 13.893 0.614514 13.8291 0.767334C13.7651 0.920155 13.7322 1.08416 13.7322 1.24981C13.7322 1.41547 13.7651 1.57947 13.8291 1.7323C13.893 1.88512 13.9867 2.02371 14.1046 2.14001C14.2226 2.25632 14.3625 2.34802 14.5162 2.40978C14.6699 2.47155 14.8344 2.50215 15 2.49981C21.9182 2.49981 27.5 8.08162 27.5 14.9998C27.5 21.9179 21.9182 27.4997 15 27.4997C8.08183 27.4997 2.5 21.9179 2.5 14.9998C2.5 12.0626 3.51067 9.37082 5.2002 7.241L7.5 9.99978L10 1.24981L1.25 2.49981L3.58398 5.30009C1.35833 7.91862 0 11.302 0 14.9998C0 23.2691 6.73067 29.9997 15 29.9997C23.2693 29.9997 30 23.2691 30 14.9998C30 6.73046 23.2693 -0.000180167 15 -0.000180167Z" fill="#E2E0C8"/>
</svg>
